<?xml version="1.0" encoding="UTF-8"?>
<svg version="1.1" xmlns="http://www.w3.org/2000/svg" width="512" height="512">
<path d="M0 0 C2.02612305 1.05639648 2.02612305 1.05639648 4.01171875 2.37109375 C4.76026123 2.85803711 5.50880371 3.34498047 6.2800293 3.84667969 C7.07449463 4.37165039 7.86895996 4.89662109 8.6875 5.4375 C62.59857285 40.24434028 124.23257268 59.73055933 188.39624023 61.65893555 C189.37278564 61.69027588 190.34933105 61.72161621 191.35546875 61.75390625 C192.22840576 61.77783447 193.10134277 61.8017627 194.00073242 61.82641602 C196 62 196 62 197 63 C197.10334675 65.01112505 197.13522887 67.02593145 197.14044189 69.03970337 C197.14615204 70.354104 197.15186218 71.66850464 197.15774536 73.0227356 C197.15899099 74.49383536 197.16011603 75.96493522 197.16113281 77.43603516 C197.16575931 78.9752006 197.17078375 80.51436489 197.17617798 82.05352783 C197.18934188 86.25322566 197.19575757 90.45290745 197.20018864 94.6526227 C197.20311998 97.28455475 197.20722546 99.91648246 197.21169281 102.54841232 C197.22539362 110.80470816 197.23504105 119.06099402 197.2388947 127.31730044 C197.2433472 136.80304865 197.26075191 146.28865073 197.2898953 155.77435458 C197.31168596 163.1266933 197.32160855 170.47899153 197.32293582 177.83136213 C197.32397383 182.21010728 197.32966042 186.58871559 197.34775543 190.9674263 C197.60043348 255.88432969 180.05173292 317.09187999 137 367 C136.36578125 367.74507813 135.7315625 368.49015625 135.078125 369.2578125 C123.76020564 382.19884433 111.56159574 394.64799653 97.65039062 404.79394531 C96.01760248 405.98713665 94.40686608 407.20597633 92.796875 408.4296875 C75.29528339 421.53423706 55.53248765 431.56002518 36.43994141 442.09619141 C30.73960732 445.2509966 25.05724893 448.43776914 19.375 451.625 C13.4539465 454.94578504 13.4539465 454.94578504 10.62792969 456.51269531 C8.90138183 457.48985339 7.19250012 458.49903809 5.50488281 459.54199219 C4.73241211 460.01024414 3.95994141 460.47849609 3.1640625 460.9609375 C2.16947021 461.58814697 2.16947021 461.58814697 1.15478516 462.22802734 C-2.81201653 463.64917248 -6.05412424 462.43419851 -9.76293945 460.73168945 C-10.70355225 460.19761475 -11.64416504 459.66354004 -12.61328125 459.11328125 C-13.68328369 458.51193359 -14.75328613 457.91058594 -15.85571289 457.29101562 C-16.99645264 456.63810547 -18.13719238 455.98519531 -19.3125 455.3125 C-20.51961494 454.62999914 -21.72722433 453.94837213 -22.93530273 453.26757812 C-25.41825936 451.86699277 -27.89855027 450.46184944 -30.37695312 449.05322266 C-34.73961277 446.57646522 -39.12424309 444.13960523 -43.50854492 441.70141602 C-47.6210731 439.41024895 -51.72393493 437.10216966 -55.82470703 434.79003906 C-57.99631156 433.56581914 -60.16922654 432.34392166 -62.34326172 431.12402344 C-80.30593923 421.02533346 -97.36274564 410.48900536 -113 397 C-113.74507813 396.36578125 -114.49015625 395.7315625 -115.2578125 395.078125 C-128.76279833 383.26698485 -141.43418743 370.51639772 -152 356 C-152.85649066 354.85005169 -153.71326433 353.70031411 -154.5703125 352.55078125 C-160.6109414 344.35910474 -165.97005071 335.84354922 -171 327 C-171.36448242 326.36819824 -171.72896484 325.73639648 -172.10449219 325.08544922 C-192.57544078 289.3200099 -203.40966967 247.54816759 -203.24291992 206.3984375 C-203.24399672 204.82121706 -203.24594125 203.24399701 -203.24867249 201.66677856 C-203.25345429 197.44467187 -203.2459547 193.22267344 -203.23571944 189.00057983 C-203.22684875 184.56484121 -203.22869798 180.12910507 -203.2290802 175.69335938 C-203.22814894 168.2665834 -203.21952983 160.83984874 -203.20581055 153.41308594 C-203.18999789 144.82117752 -203.1848159 136.22931395 -203.1855461 127.63739204 C-203.18621993 118.4704553 -203.17929883 109.30353585 -203.1700995 100.13660431 C-203.16796624 97.49689163 -203.16725812 94.85718173 -203.16686058 92.21746826 C-203.16586014 88.08707907 -203.15978827 83.95672784 -203.14969444 79.82635117 C-203.14676269 78.30773018 -203.14554543 76.78910482 -203.14612198 75.27048111 C-203.1466092 73.20697245 -203.14099205 71.1435718 -203.13371277 69.08007812 C-203.13203692 67.92318481 -203.13036108 66.7662915 -203.12863445 65.57434082 C-203 63 -203 63 -202 62 C-200.45244981 61.87771041 -198.8997192 61.82015796 -197.34765625 61.7890625 C-196.35709229 61.76295898 -195.36652832 61.73685547 -194.34594727 61.70996094 C-193.26240967 61.68192383 -192.17887207 61.65388672 -191.0625 61.625 C-132.31369359 59.61620524 -71.16527148 42.81582887 -21.9609375 10.0078125 C-20.92090576 9.31534424 -19.88087402 8.62287598 -18.80932617 7.90942383 C-16.76231754 6.53445259 -14.72553002 5.14411366 -12.70043945 3.73706055 C-11.77191162 3.10840088 -10.84338379 2.47974121 -9.88671875 1.83203125 C-9.06389404 1.26202393 -8.24106934 0.6920166 -7.39331055 0.10473633 C-4.39067635 -1.28125977 -3.10042096 -1.04626826 0 0 Z " fill="#327FB3" transform="translate(259,25)"/>
<path d="M0 0 C2.02612305 1.05639648 2.02612305 1.05639648 4.01171875 2.37109375 C4.76026123 2.85803711 5.50880371 3.34498047 6.2800293 3.84667969 C7.07449463 4.37165039 7.86895996 4.89662109 8.6875 5.4375 C62.59857285 40.24434028 124.23257268 59.73055933 188.39624023 61.65893555 C189.37278564 61.69027588 190.34933105 61.72161621 191.35546875 61.75390625 C192.22840576 61.77783447 193.10134277 61.8017627 194.00073242 61.82641602 C196 62 196 62 197 63 C197.10334675 65.01112505 197.13522887 67.02593145 197.14044189 69.03970337 C197.14615204 70.354104 197.15186218 71.66850464 197.15774536 73.0227356 C197.15899099 74.49383536 197.16011603 75.96493522 197.16113281 77.43603516 C197.16575931 78.9752006 197.17078375 80.51436489 197.17617798 82.05352783 C197.18934188 86.25322566 197.19575757 90.45290745 197.20018864 94.6526227 C197.20311998 97.28455475 197.20722546 99.91648246 197.21169281 102.54841232 C197.22539362 110.80470816 197.23504105 119.06099402 197.2388947 127.31730044 C197.2433472 136.80304865 197.26075191 146.28865073 197.2898953 155.77435458 C197.31168596 163.1266933 197.32160855 170.47899153 197.32293582 177.83136213 C197.32397383 182.21010728 197.32966042 186.58871559 197.34775543 190.9674263 C197.60043348 255.88432969 180.05173292 317.09187999 137 367 C136.36578125 367.74507813 135.7315625 368.49015625 135.078125 369.2578125 C123.76020564 382.19884433 111.56159574 394.64799653 97.65039062 404.79394531 C96.01760248 405.98713665 94.40686608 407.20597633 92.796875 408.4296875 C75.29528339 421.53423706 55.53248765 431.56002518 36.43994141 442.09619141 C30.73960732 445.2509966 25.05724893 448.43776914 19.375 451.625 C13.4539465 454.94578504 13.4539465 454.94578504 10.62792969 456.51269531 C8.90138183 457.48985339 7.19250012 458.49903809 5.50488281 459.54199219 C4.73241211 460.01024414 3.95994141 460.47849609 3.1640625 460.9609375 C2.16947021 461.58814697 2.16947021 461.58814697 1.15478516 462.22802734 C-2.81201653 463.64917248 -6.05412424 462.43419851 -9.76293945 460.73168945 C-10.70355225 460.19761475 -11.64416504 459.66354004 -12.61328125 459.11328125 C-13.68328369 458.51193359 -14.75328613 457.91058594 -15.85571289 457.29101562 C-16.99645264 456.63810547 -18.13719238 455.98519531 -19.3125 455.3125 C-20.51961494 454.62999914 -21.72722433 453.94837213 -22.93530273 453.26757812 C-25.41825936 451.86699277 -27.89855027 450.46184944 -30.37695312 449.05322266 C-34.73961277 446.57646522 -39.12424309 444.13960523 -43.50854492 441.70141602 C-47.6210731 439.41024895 -51.72393493 437.10216966 -55.82470703 434.79003906 C-57.99631156 433.56581914 -60.16922654 432.34392166 -62.34326172 431.12402344 C-80.30593923 421.02533346 -97.36274564 410.48900536 -113 397 C-113.74507813 396.36578125 -114.49015625 395.7315625 -115.2578125 395.078125 C-128.76279833 383.26698485 -141.43418743 370.51639772 -152 356 C-152.85649066 354.85005169 -153.71326433 353.70031411 -154.5703125 352.55078125 C-160.6109414 344.35910474 -165.97005071 335.84354922 -171 327 C-171.36448242 326.36819824 -171.72896484 325.73639648 -172.10449219 325.08544922 C-192.57544078 289.3200099 -203.40966967 247.54816759 -203.24291992 206.3984375 C-203.24399672 204.82121706 -203.24594125 203.24399701 -203.24867249 201.66677856 C-203.25345429 197.44467187 -203.2459547 193.22267344 -203.23571944 189.00057983 C-203.22684875 184.56484121 -203.22869798 180.12910507 -203.2290802 175.69335938 C-203.22814894 168.2665834 -203.21952983 160.83984874 -203.20581055 153.41308594 C-203.18999789 144.82117752 -203.1848159 136.22931395 -203.1855461 127.63739204 C-203.18621993 118.4704553 -203.17929883 109.30353585 -203.1700995 100.13660431 C-203.16796624 97.49689163 -203.16725812 94.85718173 -203.16686058 92.21746826 C-203.16586014 88.08707907 -203.15978827 83.95672784 -203.14969444 79.82635117 C-203.14676269 78.30773018 -203.14554543 76.78910482 -203.14612198 75.27048111 C-203.1466092 73.20697245 -203.14099205 71.1435718 -203.13371277 69.08007812 C-203.13203692 67.92318481 -203.13036108 66.7662915 -203.12863445 65.57434082 C-203 63 -203 63 -202 62 C-200.45244981 61.87771041 -198.8997192 61.82015796 -197.34765625 61.7890625 C-196.35709229 61.76295898 -195.36652832 61.73685547 -194.34594727 61.70996094 C-193.26240967 61.68192383 -192.17887207 61.65388672 -191.0625 61.625 C-132.31369359 59.61620524 -71.16527148 42.81582887 -21.9609375 10.0078125 C-20.92090576 9.31534424 -19.88087402 8.62287598 -18.80932617 7.90942383 C-16.76231754 6.53445259 -14.72553002 5.14411366 -12.70043945 3.73706055 C-11.77191162 3.10840088 -10.84338379 2.47974121 -9.88671875 1.83203125 C-9.06389404 1.26202393 -8.24106934 0.6920166 -7.39331055 0.10473633 C-4.39067635 -1.28125977 -3.10042096 -1.04626826 0 0 Z M-10.1875 40.75 C-47.62005849 63.62801853 -88.84300409 78.86309478 -131.8125 87.3125 C-132.9770874 87.54275879 -134.1416748 87.77301758 -135.34155273 88.01025391 C-143.364777 89.51312681 -151.40647013 90.58985335 -159.5065918 91.58276367 C-160.6147097 91.71987511 -161.72282761 91.85698654 -162.86452484 91.99825287 C-165.57617986 92.33357266 -168.28800377 92.66745313 -171 93 C-171.09423773 109.09239467 -171.16436213 125.18469725 -171.20724869 141.27730274 C-171.22770781 148.75259034 -171.25550116 156.22770466 -171.30175781 163.70288086 C-171.34214483 170.23273042 -171.36755301 176.7624543 -171.37635398 183.29242533 C-171.38148304 186.73691109 -171.39316941 190.1810379 -171.42292023 193.62540627 C-171.8882509 254.39319896 -151.67315644 312.01002485 -109 356 C-108.43555176 356.59022949 -107.87110352 357.18045898 -107.28955078 357.78857422 C-83.97008998 382.11075303 -55.84548633 397.51172977 -26.58886719 413.66088867 C-24.98060059 414.54997925 -24.98060059 414.54997925 -23.33984375 415.45703125 C-21.76565674 416.32255615 -21.76565674 416.32255615 -20.15966797 417.20556641 C-17.99090663 418.43724589 -15.84991345 419.7187396 -13.73486328 421.04052734 C-12.68927246 421.69102051 -11.64368164 422.34151367 -10.56640625 423.01171875 C-9.63900635 423.60815186 -8.71160645 424.20458496 -7.75610352 424.8190918 C-4.3002189 426.29983534 -2.58409907 426.01982451 1 425 C3.39576628 423.96598913 3.39576628 423.96598913 5.66796875 422.5859375 C6.98716309 421.8268811 6.98716309 421.8268811 8.33300781 421.05249023 C9.27499023 420.49891846 10.21697266 419.94534668 11.1875 419.375 C13.24791971 418.18484965 15.30915204 416.99610528 17.37109375 415.80859375 C18.45116699 415.18452637 19.53124023 414.56045898 20.64404297 413.91748047 C25.16600125 411.33378628 29.73200101 408.83390717 34.29931641 406.33154297 C56.864553 393.94572823 77.37268273 380.84551381 96 363 C96.58394531 362.44860352 97.16789062 361.89720703 97.76953125 361.32910156 C107.63555057 351.97715378 116.09982345 342.05494504 124 331 C124.44150391 330.3925293 124.88300781 329.78505859 125.33789062 329.15917969 C150.61086157 294.16135587 165.24937561 249.45875445 165.11352539 206.29833984 C165.11374443 204.45272461 165.11374443 204.45272461 165.1139679 202.56982422 C165.1133945 199.22752296 165.10841207 195.88528504 165.10139394 192.54299498 C165.09510238 189.03831898 165.09455204 185.53364195 165.09336853 182.02896118 C165.09027221 175.40650032 165.08208193 168.78405616 165.07201904 162.16160262 C165.06080487 154.61617198 165.05533414 147.07074051 165.05032361 139.5253036 C165.03989774 124.01685943 165.0223315 108.50843188 165 93 C164.3154156 92.91605578 163.6308312 92.83211157 162.92550182 92.74562359 C159.78565906 92.3596596 156.64612596 91.97122959 153.5065918 91.58276367 C152.42981926 91.45077324 151.35304672 91.31878281 150.24364471 91.18279266 C142.03625946 90.16465489 133.92801037 88.91764244 125.8125 87.3125 C124.51989258 87.05758789 123.22728516 86.80267578 121.89550781 86.54003906 C79.60831325 78.0192688 35.76054043 62.59130903 -0.13671875 38.14453125 C-4.09910198 35.71061451 -6.72390554 38.57702423 -10.1875 40.75 Z " fill="#3A8EC7" transform="translate(259,25)"/>
<path d="M0 0 C2.02612305 1.05639648 2.02612305 1.05639648 4.01171875 2.37109375 C4.76026123 2.85803711 5.50880371 3.34498047 6.2800293 3.84667969 C7.07449463 4.37165039 7.86895996 4.89662109 8.6875 5.4375 C34.02625046 21.79706759 61.00354836 34.86388501 89.625 44.375 C90.25980286 44.58614441 90.89460571 44.79728882 91.54864502 45.01483154 C99.30621387 47.58225274 107.09065328 49.94596724 115 52 C114.4003591 59.2791851 112.85155267 66.02358241 110.9375 73.0625 C110.65583984 74.11888672 110.37417969 75.17527344 110.08398438 76.26367188 C109.39510271 78.84405915 108.70034171 81.42270414 108 84 C71.87549838 76.71395807 34.25286803 61.97983702 3.71875 41.17578125 C-0.05014462 38.55456965 -0.05014462 38.55456965 -4.42578125 38.375 C-5.70001953 39.179375 -5.70001953 39.179375 -7 40 C-8.37647125 40.78973832 -9.75423062 41.57723308 -11.1328125 42.36328125 C-11.92429688 42.8312915 -12.71578125 43.29930176 -13.53125 43.78149414 C-56.38881577 69.0789146 -102.71778348 83.73296058 -151.625 91.875 C-152.32761963 91.99528564 -153.03023926 92.11557129 -153.75415039 92.23950195 C-157.78299662 92.86352601 -161.68413208 93.04951091 -165.76318359 93.02783203 C-166.74612396 93.02381378 -167.72906433 93.01979553 -168.74179077 93.01565552 C-169.85960434 93.00790604 -169.85960434 93.00790604 -171 93 C-170.96251681 109.09258631 -170.90220239 125.18491028 -170.81609726 141.27730274 C-170.77660894 148.75249818 -170.74406566 156.22759296 -170.72900391 163.70288086 C-170.71582799 170.232846 -170.68846995 176.76258679 -170.64538693 183.29242533 C-170.62312206 186.73681717 -170.60706755 190.18093611 -170.60811615 193.62540627 C-170.56775927 258.35293584 -148.06651425 315.80320198 -102.3125 361.75 C-100.87758947 363.16928942 -99.44111934 364.58701531 -98 366 C-99.50834002 370.13396895 -101.94405275 371.49247535 -105.6640625 373.671875 C-107.34628906 374.66767578 -107.34628906 374.66767578 -109.0625 375.68359375 C-110.249869 376.37262162 -111.43737073 377.06142083 -112.625 377.75 C-113.8208736 378.4534741 -115.0161931 379.15789106 -116.2109375 379.86328125 C-119.13530168 381.58488274 -122.06499629 383.29662137 -125 385 C-135.32186143 376.24647794 -143.90005798 366.80762867 -152 356 C-152.43489746 355.42056641 -152.86979492 354.84113281 -153.31787109 354.24414062 C-159.82249568 345.51210762 -165.61830759 336.46197645 -171 327 C-171.36448242 326.36819824 -171.72896484 325.73639648 -172.10449219 325.08544922 C-192.57544078 289.3200099 -203.40966967 247.54816759 -203.24291992 206.3984375 C-203.24399672 204.82121706 -203.24594125 203.24399701 -203.24867249 201.66677856 C-203.25345429 197.44467187 -203.2459547 193.22267344 -203.23571944 189.00057983 C-203.22684875 184.56484121 -203.22869798 180.12910507 -203.2290802 175.69335938 C-203.22814894 168.2665834 -203.21952983 160.83984874 -203.20581055 153.41308594 C-203.18999789 144.82117752 -203.1848159 136.22931395 -203.1855461 127.63739204 C-203.18621993 118.4704553 -203.17929883 109.30353585 -203.1700995 100.13660431 C-203.16796624 97.49689163 -203.16725812 94.85718173 -203.16686058 92.21746826 C-203.16586014 88.08707907 -203.15978827 83.95672784 -203.14969444 79.82635117 C-203.14676269 78.30773018 -203.14554543 76.78910482 -203.14612198 75.27048111 C-203.1466092 73.20697245 -203.14099205 71.1435718 -203.13371277 69.08007812 C-203.13203692 67.92318481 -203.13036108 66.7662915 -203.12863445 65.57434082 C-203 63 -203 63 -202 62 C-200.45244981 61.87771041 -198.8997192 61.82015796 -197.34765625 61.7890625 C-196.35709229 61.76295898 -195.36652832 61.73685547 -194.34594727 61.70996094 C-193.26240967 61.68192383 -192.17887207 61.65388672 -191.0625 61.625 C-132.31369359 59.61620524 -71.16527148 42.81582887 -21.9609375 10.0078125 C-20.92090576 9.31534424 -19.88087402 8.62287598 -18.80932617 7.90942383 C-16.76231754 6.53445259 -14.72553002 5.14411366 -12.70043945 3.73706055 C-11.77191162 3.10840088 -10.84338379 2.47974121 -9.88671875 1.83203125 C-9.06389404 1.26202393 -8.24106934 0.6920166 -7.39331055 0.10473633 C-4.39067635 -1.28125977 -3.10042096 -1.04626826 0 0 Z " fill="#4298D0" transform="translate(259,25)"/>
<path d="M0 0 C0.80574463 0.44013428 1.61148926 0.88026855 2.44165039 1.33374023 C3.12372559 1.704104 3.80580078 2.07446777 4.50854492 2.45605469 C5.19029785 2.86557373 5.87205078 3.27509277 6.57446289 3.69702148 C52.57916127 30.89992182 102.89461429 47.75956897 155.97412109 54.04003906 C159.46520241 54.45556996 162.95307532 54.89766835 166.44165039 55.33374023 C166.44165039 62.26374023 166.44165039 69.19374023 166.44165039 76.33374023 C112.43366421 76.33374023 47.56215694 54.06578366 3.12915039 23.35717773 C0.28092329 21.50393364 0.28092329 21.50393364 -3.05053711 21.73999023 C-4.2919043 22.52889648 -4.2919043 22.52889648 -5.55834961 23.33374023 C-6.80853398 24.01528119 -8.06142555 24.69186676 -9.31616211 25.36499023 C-10.77292272 26.18607961 -12.22858872 27.00911304 -13.68334961 27.83374023 C-16.97252441 29.67155242 -20.26520038 31.50306043 -23.55834961 33.33374023 C-24.32018555 33.7578418 -25.08202148 34.18194336 -25.86694336 34.61889648 C-67.792247 57.79770387 -121.29213511 76.33374023 -169.55834961 76.33374023 C-169.55834961 69.40374023 -169.55834961 62.47374023 -169.55834961 55.33374023 C-166.23772461 54.96249023 -162.91709961 54.59124023 -159.49584961 54.20874023 C-112.3171625 48.46865566 -67.71581767 34.46625069 -25.49584961 12.70874023 C-24.47281738 12.1823999 -23.44978516 11.65605957 -22.39575195 11.11376953 C-16.29951383 7.92265352 -10.62249121 4.46731664 -5.03320312 0.44555664 C-2.55834961 -0.66625977 -2.55834961 -0.66625977 0 0 Z " fill="#2F76A6" transform="translate(257.558349609375,62.666259765625)"/>
<path d="M0 0 C5.28 0 10.56 0 16 0 C16 5.28 16 10.56 16 16 C10.72 16 5.44 16 0 16 C0 10.72 0 5.44 0 0 Z " fill="#5EA9DB" transform="translate(248,400)"/>
<path d="M0 0 C5.28 0 10.56 0 16 0 C16 5.28 16 10.56 16 16 C10.72 16 5.44 16 0 16 C0 10.72 0 5.44 0 0 Z " fill="#5EA9DB" transform="translate(352,328)"/>
<path d="M0 0 C5.28 0 10.56 0 16 0 C16 5.28 16 10.56 16 16 C10.72 16 5.44 16 0 16 C0 10.72 0 5.44 0 0 Z " fill="#5EA9DB" transform="translate(144,328)"/>
<path d="M0 0 C5.28 0 10.56 0 16 0 C16 5.28 16 10.56 16 16 C10.72 16 5.44 16 0 16 C0 10.72 0 5.44 0 0 Z " fill="#5EA9DB" transform="translate(384,232)"/>
<path d="M0 0 C5.28 0 10.56 0 16 0 C16 5.28 16 10.56 16 16 C10.72 16 5.44 16 0 16 C0 10.72 0 5.44 0 0 Z " fill="#5EA9DB" transform="translate(112,232)"/>
<path d="M0 0 C5.28 0 10.56 0 16 0 C16 5.28 16 10.56 16 16 C10.72 16 5.44 16 0 16 C0 10.72 0 5.44 0 0 Z " fill="#5DA8DA" transform="translate(384,136)"/>
<path d="M0 0 C5.28 0 10.56 0 16 0 C16 5.28 16 10.56 16 16 C10.72 16 5.44 16 0 16 C0 10.72 0 5.44 0 0 Z " fill="#5DA8DA" transform="translate(112,136)"/>
<path d="M0 0 C5.28 0 10.56 0 16 0 C16 5.28 16 10.56 16 16 C10.72 16 5.44 16 0 16 C0 10.72 0 5.44 0 0 Z " fill="#5EA9DB" transform="translate(248,96)"/>
</svg>
